<?xml version="1.0" standalone="no"?>
<!DOCTYPE svg PUBLIC "-//W3C//DTD SVG 20010904//EN"
 "http://www.w3.org/TR/2001/REC-SVG-20010904/DTD/svg10.dtd">
<svg version="1.0" xmlns="http://www.w3.org/2000/svg"
 width="4961.000000pt" height="3508.000000pt" viewBox="0 0 4961.000000 3508.000000"
 preserveAspectRatio="xMidYMid meet">
<metadata>
Created by potrace 1.16, written by Peter Selinger 2001-2019
</metadata>
<g transform="translate(0.000000,3508.000000) scale(0.100000,-0.100000)"
fill="#FFFFFF" stroke="none">
<path d="M24880 33397 c-108 -28 -134 -38 -192 -80 -72 -52 -93 -73 -150 -157
-30 -44 -44 -81 -68 -183 l-30 -128 0 -436 0 -435 -143 -157 c-117 -128 -214
-247 -249 -306 -4 -6 -20 -70 -37 -142 l-31 -132 10 -748 c5 -411 14 -1088 20
-1503 5 -415 12 -957 16 -1205 l7 -450 -399 -400 c-482 -482 -498 -503 -540
-685 -28 -119 -29 -132 -23 -270 4 -80 12 -260 18 -400 27 -586 32 -664 51
-740 27 -105 65 -564 145 -1750 14 -206 27 -406 30 -445 3 -38 17 -241 30
-450 14 -209 29 -452 35 -540 6 -88 15 -230 20 -315 6 -85 12 -182 15 -215 l5
-60 -54 -63 c-30 -35 -56 -64 -59 -65 -3 -1 -17 14 -30 33 -14 19 -46 64 -71
100 -25 36 -75 106 -110 155 -114 158 -191 267 -201 284 -5 9 -12 18 -15 21
-3 3 -31 41 -63 85 -31 44 -60 85 -65 90 -4 6 -28 39 -52 75 -24 36 -46 67
-50 70 -3 3 -37 49 -76 103 -38 55 -89 127 -114 162 -25 35 -74 104 -109 154
l-64 91 -1413 0 -1413 0 -73 -102 c-40 -57 -75 -105 -79 -108 -3 -3 -30 -40
-60 -84 -76 -111 -78 -114 -134 -191 -27 -39 -52 -72 -55 -75 -3 -3 -25 -34
-49 -70 -25 -36 -66 -94 -92 -130 -27 -36 -97 -135 -158 -220 -60 -85 -113
-159 -118 -165 -5 -5 -19 -26 -33 -45 -13 -19 -27 -37 -30 -40 -3 -3 -9 -12
-15 -22 -16 -25 -93 -135 -154 -219 -31 -42 -74 -102 -96 -133 -76 -108 -136
-191 -150 -209 -8 -9 -15 -19 -15 -22 0 -2 -18 -28 -40 -57 -22 -29 -40 -57
-40 -61 0 -8 134 -205 157 -232 5 -5 28 -37 51 -70 64 -92 190 -269 199 -280
5 -5 31 -41 58 -80 28 -38 60 -83 72 -100 12 -16 43 -61 69 -100 27 -38 56
-79 66 -89 28 -31 30 -50 10 -128 l-18 -73 26 -106 c20 -83 34 -117 65 -160
22 -30 199 -216 394 -414 l355 -360 -62 -3 c-51 -2 -64 -7 -73 -24 -6 -12 -32
-49 -56 -82 -24 -34 -51 -70 -59 -81 -8 -11 -89 -126 -181 -255 -120 -168
-169 -229 -171 -215 -2 11 -22 73 -43 139 -38 115 -38 119 -22 147 10 16 21
29 25 29 4 0 8 5 8 11 0 6 9 23 21 37 36 46 241 334 273 383 l18 30 -53 77
c-29 42 -61 86 -71 96 -10 11 -18 25 -18 32 0 7 -3 14 -7 16 -10 4 -57 67 -98
128 -17 25 -33 47 -36 50 -3 3 -24 32 -47 65 -70 101 -190 269 -211 295 -12
14 -21 31 -21 38 0 6 -3 12 -7 12 -5 0 -19 17 -33 38 -14 20 -29 42 -35 49 -5
6 -39 52 -75 103 -36 51 -93 131 -127 179 -116 161 -188 263 -198 280 -5 9
-12 18 -15 21 -3 3 -28 36 -55 75 -54 75 -53 73 -134 191 -30 44 -60 84 -66
90 -5 6 -28 36 -49 67 l-39 57 -1416 0 -1416 0 -38 -58 c-21 -31 -48 -70 -60
-87 -12 -16 -44 -61 -72 -100 -27 -38 -52 -72 -55 -75 -3 -3 -9 -12 -15 -21
-24 -40 -101 -148 -132 -186 l-34 -43 -97 0 c-69 0 -129 -7 -209 -26 -94 -22
-120 -32 -172 -70 -95 -69 -141 -139 -171 -264 l-26 -105 24 -100 c18 -77 32
-113 62 -156 37 -54 38 -57 22 -80 -9 -13 -18 -26 -21 -29 -4 -3 -19 -25 -36
-50 -16 -25 -40 -58 -52 -73 l-23 -28 -185 371 c-102 204 -203 395 -225 425
-67 91 -137 135 -262 166 l-108 27 -107 -27 c-130 -32 -198 -76 -272 -178 -30
-41 -165 -300 -352 -679 l-304 -613 -755 -1 -755 0 -40 -56 c-22 -31 -69 -95
-103 -143 -35 -47 -71 -98 -80 -113 -9 -16 -20 -28 -24 -28 -4 0 -8 -5 -8 -11
0 -6 -10 -24 -22 -39 -13 -16 -48 -63 -78 -107 -30 -43 -57 -80 -60 -83 -4 -3
-21 -27 -40 -55 -60 -89 -184 -260 -192 -263 -5 -2 -8 -10 -8 -17 0 -7 -3 -15
-7 -17 -5 -1 -28 -32 -52 -68 -25 -36 -48 -67 -51 -70 -3 -3 -16 -21 -28 -40
-11 -19 -33 -47 -47 -62 -14 -15 -25 -31 -25 -36 0 -4 -8 -17 -17 -28 -10 -11
-22 -27 -28 -36 -34 -54 -139 -198 -151 -208 -8 -7 -14 -19 -14 -26 0 -8 -3
-14 -8 -14 -4 0 -18 -18 -32 -40 -14 -22 -28 -40 -32 -40 -5 0 -8 -5 -8 -11 0
-6 -10 -24 -22 -39 -13 -16 -48 -63 -78 -107 -30 -43 -58 -79 -62 -81 -5 -2
-8 -9 -8 -15 0 -6 -8 -20 -19 -31 -10 -12 -26 -32 -34 -46 -15 -24 -15 -27 19
-75 102 -146 161 -229 224 -315 38 -52 73 -102 77 -110 3 -8 9 -17 13 -20 5
-4 78 -105 120 -166 8 -12 30 -43 48 -68 l33 -46 -144 0 -145 0 -45 63 c-25
34 -100 139 -166 232 -66 94 -124 175 -128 180 -5 6 -30 40 -56 77 -46 65 -47
70 -38 105 6 21 11 96 11 166 0 128 0 129 32 175 17 26 34 49 37 52 3 3 11 12
16 22 17 28 148 213 155 218 4 3 26 34 50 70 24 36 48 70 52 75 5 6 34 46 65
90 32 44 61 82 65 83 4 2 8 10 8 17 0 7 4 15 8 17 5 2 28 32 52 68 24 36 46
67 49 70 3 3 20 25 36 50 16 25 32 47 35 50 3 3 17 21 30 40 13 19 27 37 30
40 3 3 10 12 15 21 6 10 51 74 100 144 50 70 104 146 120 170 17 23 38 53 48
66 10 13 48 67 85 119 37 52 79 111 93 130 65 88 169 238 169 243 0 5 -155
224 -178 252 -4 6 -28 39 -52 74 -25 35 -58 83 -75 106 -16 23 -50 70 -75 106
-24 35 -52 73 -62 83 -10 11 -18 25 -18 32 0 7 -4 14 -8 16 -4 2 -33 39 -64
83 -32 44 -61 85 -66 90 -4 6 -28 39 -52 75 -24 36 -47 67 -52 68 -4 2 -8 10
-8 17 0 7 -4 15 -9 17 -4 2 -33 39 -64 83 -31 44 -60 85 -65 90 -4 6 -28 39
-52 75 -24 36 -48 70 -52 75 -12 14 -71 96 -138 190 -58 82 -176 247 -235 328
-19 26 -35 52 -35 58 0 5 -4 9 -10 9 -5 0 -10 7 -10 15 0 13 -165 15 -1423 15
-1343 0 -1423 -1 -1435 -17 -89 -125 -169 -237 -194 -273 -18 -25 -35 -46 -40
-48 -4 -2 -8 -8 -8 -13 0 -7 -94 -142 -120 -172 -3 -4 -32 4 -62 17 -103 46
-734 304 -1457 598 -1391 564 -1947 794 -2519 1045 -256 112 -388 164 -467
184 l-110 29 -110 -27 c-91 -21 -119 -33 -168 -69 -93 -68 -139 -140 -170
-266 l-25 -106 25 -105 c18 -77 33 -118 58 -154 19 -26 362 -413 762 -858 532
-592 746 -824 793 -858 83 -61 312 -152 1780 -712 322 -123 621 -237 665 -254
80 -31 81 -32 135 -113 30 -44 60 -86 65 -92 9 -10 82 -110 125 -172 8 -12 40
-57 69 -100 30 -44 62 -87 70 -96 9 -9 24 -30 34 -47 l18 -31 -1251 0 -1251 0
-107 -27 c-128 -32 -199 -77 -268 -172 -36 -50 -49 -79 -69 -164 -25 -100 -25
-109 -25 -524 0 -415 0 -423 25 -525 48 -196 147 -294 348 -342 l109 -26 1392
0 1393 0 33 -22 c38 -26 79 -99 80 -142 0 -51 -49 -125 -100 -151 -46 -23
-487 -197 -1445 -570 -506 -197 -1426 -564 -1517 -605 -114 -51 -152 -93 -973
-1074 -437 -522 -810 -972 -829 -1000 -24 -37 -41 -80 -58 -151 l-24 -100 26
-105 c30 -125 76 -195 172 -265 51 -37 78 -48 169 -69 l108 -26 105 25 c96 23
150 47 598 271 996 498 1957 954 3043 1446 l330 149 30 -37 c17 -21 60 -81 97
-133 37 -53 75 -107 85 -120 21 -29 54 -74 151 -212 40 -57 78 -111 85 -119 7
-8 23 -31 36 -50 14 -19 48 -67 78 -107 29 -39 53 -74 53 -77 0 -3 6 -14 14
-23 36 -44 106 -141 106 -148 0 -3 7 -13 15 -21 8 -8 33 -41 56 -74 l42 -60
1421 0 1421 1 30 47 c16 26 49 74 73 107 51 70 42 58 179 250 58 83 110 152
115 153 4 2 8 10 8 17 0 7 3 15 8 17 4 2 27 32 52 68 24 36 48 70 53 75 4 6
30 42 58 80 27 39 55 77 62 86 7 8 17 23 22 31 6 9 46 67 90 128 44 62 95 133
113 159 17 25 38 53 45 61 7 8 32 44 56 80 24 36 53 75 64 88 l20 22 734 0
733 0 112 26 c97 23 120 33 177 74 85 62 142 142 239 335 l77 155 646 0 647 0
24 29 c12 16 39 52 58 80 19 27 38 50 43 51 4 0 7 6 7 13 0 7 8 22 18 33 10
10 49 64 87 119 38 55 72 102 75 105 4 3 26 34 50 70 24 36 47 67 50 70 4 3
12 15 19 28 16 30 28 21 36 -31 4 -23 26 -78 48 -123 l40 -80 -54 -75 c-30
-40 -57 -75 -61 -77 -5 -2 -8 -8 -8 -13 0 -5 -15 -28 -32 -52 -18 -24 -51 -70
-73 -101 -22 -31 -57 -80 -77 -107 -41 -55 -45 -70 -25 -91 7 -7 33 -42 58
-77 24 -35 53 -76 64 -91 11 -15 43 -61 72 -101 29 -41 90 -127 137 -192 48
-65 86 -120 86 -122 0 -3 6 -13 14 -22 41 -51 86 -114 86 -122 0 -5 4 -11 8
-13 4 -2 48 -59 97 -128 48 -69 101 -142 117 -162 15 -20 28 -41 28 -47 0 -5
3 -11 8 -13 12 -5 162 -215 162 -227 0 -6 3 -11 8 -11 4 0 18 -17 32 -38 14
-20 27 -39 30 -42 6 -5 88 -120 122 -170 10 -14 39 -55 65 -92 27 -36 79 -109
116 -162 l68 -96 1414 0 1414 0 54 72 c29 40 98 136 152 213 55 77 102 142
105 145 4 3 28 37 54 75 26 39 57 84 69 100 12 17 44 62 72 100 27 39 53 75
58 80 9 11 135 188 199 280 23 33 46 65 50 70 5 6 42 57 83 115 41 58 81 114
90 125 9 11 24 32 33 48 9 15 20 27 24 27 4 0 8 5 8 12 0 6 17 34 38 62 21 28
56 76 78 106 21 30 42 56 46 58 5 2 8 10 8 18 0 26 17 14 53 -36 19 -28 55
-66 80 -83 l46 -33 -76 -104 c-41 -58 -79 -106 -84 -108 -5 -2 -9 -9 -9 -16 0
-6 -13 -27 -28 -46 -25 -31 -63 -83 -197 -274 -16 -24 -38 -54 -48 -67 -22
-30 -151 -211 -217 -304 -27 -38 -64 -91 -82 -116 -18 -25 -53 -75 -77 -110
-25 -35 -50 -69 -55 -76 -6 -7 -33 -44 -61 -83 -72 -104 -144 -202 -160 -223
-8 -9 -15 -21 -15 -26 0 -5 -4 -11 -8 -13 -12 -5 -72 -95 -72 -108 0 -13 60
-103 72 -108 4 -2 8 -10 8 -18 0 -8 3 -14 8 -14 4 -1 32 -37 62 -81 30 -44 65
-92 77 -107 13 -15 23 -33 23 -39 0 -7 4 -13 8 -13 4 0 15 -12 24 -28 9 -15
26 -38 37 -52 11 -14 66 -90 122 -170 56 -80 126 -176 154 -215 28 -38 71 -99
96 -135 24 -36 46 -67 49 -70 8 -7 171 -237 210 -295 19 -27 36 -52 40 -55 5
-4 74 -100 120 -166 30 -43 121 -172 195 -274 41 -58 75 -108 75 -112 0 -5
638 -8 1418 -8 l1418 0 134 188 c74 103 138 189 142 190 5 2 8 8 8 12 0 8 119
178 154 221 8 9 38 52 67 94 30 43 61 87 69 99 40 57 115 162 120 166 3 3 25
34 50 70 24 36 48 70 53 75 7 9 121 170 159 225 17 25 17 24 17 -43 1 -38 5
-132 11 -210 5 -78 14 -216 20 -307 33 -530 41 -660 50 -805 9 -144 20 -327
50 -795 6 -85 17 -267 25 -405 8 -137 20 -317 25 -400 14 -222 28 -440 45
-715 8 -135 19 -317 25 -405 13 -208 26 -412 45 -715 8 -135 20 -315 26 -400
7 -111 7 -169 0 -203 -8 -33 -8 -88 -1 -185 5 -75 21 -312 35 -527 14 -214 30
-455 35 -535 11 -161 35 -513 50 -750 6 -85 19 -292 30 -460 12 -168 25 -372
30 -455 27 -410 30 -440 61 -571 29 -123 35 -137 85 -207 37 -51 78 -93 127
-128 66 -49 83 -56 204 -85 l132 -32 133 32 c123 30 138 36 205 85 47 34 90
78 120 120 27 36 354 638 729 1336 l681 1270 32 135 c17 74 124 684 236 1355
112 671 297 1774 410 2450 113 677 258 1541 321 1920 63 380 118 698 122 708
6 15 16 5 57 -55 27 -40 52 -75 55 -78 5 -4 78 -105 120 -166 19 -27 105 -149
167 -235 27 -37 83 -115 125 -175 183 -258 300 -421 321 -449 13 -16 54 -74
92 -127 l69 -98 1422 0 1421 0 46 68 c52 76 52 75 270 382 88 124 177 248 197
275 20 28 76 106 125 175 48 69 104 148 125 175 20 28 81 113 136 190 54 77
102 145 107 150 9 11 271 380 336 473 l42 60 -68 97 c-101 144 -272 384 -329
462 -8 11 -63 88 -120 170 -58 81 -114 159 -124 173 -10 14 -107 149 -214 300
-108 151 -202 284 -210 295 -8 11 -31 42 -50 69 l-35 50 39 22 c53 30 111 74
132 98 20 24 13 30 93 -84 25 -36 62 -88 83 -117 20 -28 68 -95 106 -150 38
-54 85 -120 106 -148 91 -125 121 -166 305 -425 107 -151 201 -284 209 -295
63 -87 117 -163 151 -211 22 -32 60 -84 85 -116 l45 -59 1400 -4 c770 -2 1408
-2 1417 1 9 3 34 28 54 57 21 29 54 75 74 102 20 28 104 145 186 260 82 116
152 215 157 220 8 10 91 126 235 329 42 60 98 138 125 175 26 36 55 77 64 91
23 33 436 612 479 670 l32 45 -119 168 -119 168 2 205 3 205 218 -305 219
-306 789 0 790 0 262 -237 c352 -318 374 -333 508 -365 l106 -26 104 24 c106
25 181 64 237 124 l23 25 17 -21 c76 -94 253 -154 456 -154 l115 0 143 -201
c79 -110 170 -239 203 -285 125 -176 584 -820 600 -842 9 -12 20 -20 24 -17 5
2 15 -3 22 -13 13 -15 12 -16 -3 -3 -26 20 -22 3 8 -36 l25 -33 1420 0 c992 0
1419 3 1419 11 0 5 -5 7 -12 3 -7 -4 -8 -3 -4 5 4 6 11 9 16 6 12 -8 52 46 45
62 -2 8 -1 12 4 8 13 -7 104 123 95 137 -4 6 -3 8 4 5 5 -4 23 11 39 33 25 33
32 37 44 26 8 -8 329 -217 714 -467 385 -249 775 -501 867 -561 91 -59 169
-108 172 -108 3 0 6 121 6 269 l0 268 -1122 729 c-618 400 -1321 857 -1563
1014 -242 157 -496 321 -565 365 l-125 80 -910 905 c-500 497 -1073 1066
-1272 1264 l-363 360 1272 1265 1271 1266 156 83 c86 46 248 132 361 192 113
59 608 321 1100 582 492 261 1090 578 1328 704 l432 229 0 248 c0 232 -1 248
-17 243 -10 -3 -31 -8 -48 -12 -16 -4 -77 -33 -135 -64 -58 -32 -546 -290
-1085 -575 -539 -285 -981 -522 -983 -527 -2 -4 -579 -8 -1281 -8 l-1278 0
-31 -44 c-34 -46 -40 -62 -20 -50 7 4 8 3 4 -5 -4 -6 -11 -9 -16 -6 -5 3 -18
-8 -29 -24 -23 -32 -27 -46 -9 -35 7 4 8 3 4 -5 -4 -6 -11 -9 -16 -6 -5 3 -18
-8 -29 -24 -23 -32 -27 -46 -9 -35 7 4 8 3 4 -5 -4 -6 -11 -9 -16 -6 -5 3 -18
-7 -29 -21 -22 -28 -28 -50 -11 -39 6 3 7 -1 3 -10 -4 -12 -8 -13 -13 -5 -4 7
-52 -52 -121 -149 l-114 -161 -408 0 c-405 0 -409 0 -510 -26 -81 -20 -114
-34 -164 -70 -35 -25 -68 -54 -74 -66 -11 -20 -11 -20 -37 8 -59 64 -133 102
-244 129 -106 25 -114 25 -515 25 l-408 -1 -110 -27 c-90 -23 -120 -35 -167
-70 -94 -69 -138 -138 -170 -267 l-27 -110 -1 -487 0 -488 -552 0 -553 1 -241
217 c-133 119 -253 231 -266 247 -13 17 -69 93 -123 170 -55 77 -173 244 -264
370 -90 127 -188 264 -218 305 -29 41 -59 84 -67 95 -8 11 -62 88 -121 170
-58 83 -131 184 -161 225 -30 41 -85 118 -122 170 l-68 95 -1410 2 -1409 3
-150 -212 c-82 -116 -164 -230 -180 -252 -17 -23 -46 -63 -65 -91 -19 -27 -38
-54 -43 -60 -4 -5 -35 -48 -68 -95 -33 -47 -66 -92 -73 -101 -7 -9 -32 -42
-54 -75 -92 -131 -193 -274 -341 -480 -37 -50 -83 -115 -104 -145 -21 -30 -99
-139 -174 -244 -74 -104 -137 -195 -140 -202 -4 -10 47 -95 68 -113 3 -3 24
-32 47 -65 23 -33 71 -100 106 -150 36 -49 82 -114 103 -144 21 -29 63 -88 94
-130 53 -73 95 -132 168 -237 19 -27 62 -87 96 -134 73 -101 253 -355 277
-390 10 -14 63 -89 120 -167 57 -78 132 -183 167 -233 34 -49 67 -93 72 -96 5
-3 9 -100 9 -216 l0 -210 -37 -52 c-20 -28 -53 -73 -73 -101 -20 -27 -86 -119
-146 -203 -60 -85 -142 -199 -182 -255 -89 -126 -162 -228 -203 -287 -40 -57
-201 -282 -212 -295 -4 -5 -36 -50 -70 -99 l-62 -89 -5 194 -6 194 38 55 c21
30 72 102 113 160 41 58 94 132 117 165 23 33 46 65 51 70 4 6 38 53 75 105
37 52 79 111 93 130 32 43 224 313 301 423 32 45 58 85 58 88 0 5 -183 266
-294 419 -14 19 -131 184 -260 365 -129 182 -254 357 -278 389 -24 33 -83 116
-133 187 -151 214 -306 431 -353 494 -24 33 -49 69 -54 80 -9 20 -17 20 -768
17 -418 -1 -760 -1 -760 1 0 1 16 56 35 121 19 66 35 121 35 123 0 1 323 3
718 3 l718 0 84 118 c47 64 96 133 111 152 26 34 229 320 259 363 14 20 286
402 545 765 61 85 123 172 139 195 52 76 201 282 206 287 3 3 16 21 28 41 l21
35 -37 51 c-20 28 -56 77 -79 109 -23 33 -92 129 -153 214 -141 197 -241 338
-260 367 -18 26 -223 313 -259 363 -14 19 -135 188 -268 375 -134 187 -249
349 -257 360 -8 11 -29 39 -45 63 l-31 42 -1418 0 -1417 0 -75 -106 c-41 -58
-99 -140 -129 -183 -30 -42 -67 -94 -83 -116 -16 -22 -47 -67 -70 -100 -23
-33 -47 -65 -52 -72 -6 -6 -40 -54 -76 -107 -36 -52 -71 -95 -78 -96 -8 0 -32
13 -55 29 -31 22 -77 38 -170 60 l-129 30 -132 -33 c-124 -30 -137 -36 -210
-90 -43 -31 -136 -112 -208 -178 -123 -114 -132 -120 -145 -102 -26 36 -26 69
1 274 15 113 38 286 51 385 13 99 35 268 49 375 15 107 44 332 66 499 22 167
41 305 42 307 2 1 277 181 613 400 335 219 631 413 657 432 27 18 72 68 102
110 53 76 54 79 104 292 28 118 76 328 107 465 200 886 403 1717 466 1905 12
36 34 118 50 183 l28 118 -33 132 c-29 121 -37 138 -84 204 -35 47 -78 90
-125 125 -66 47 -84 55 -203 84 l-130 32 -130 -30 c-125 -29 -132 -33 -221
-97 -50 -36 -328 -252 -618 -479 -290 -227 -531 -412 -536 -410 -6 2 -133 102
-283 223 l-273 220 -6 540 c-4 297 -12 1359 -18 2360 l-11 1820 -33 137 c-38
161 21 71 -539 825 -371 500 -391 525 -463 577 -70 51 -86 57 -204 86 -71 16
-134 30 -141 29 -7 0 -69 -15 -138 -32z m3602 -6374 c-43 -82 -384 -1483 -593
-2438 -18 -82 -37 -155 -43 -162 -6 -6 -99 -69 -206 -139 -330 -215 -1071
-697 -1152 -749 -43 -28 -80 -57 -83 -65 -2 -8 -16 -105 -30 -215 -35 -273
-96 -735 -214 -1634 l-49 -374 236 -438 c131 -241 239 -438 242 -439 3 0 104
91 226 203 454 416 605 552 612 554 4 2 113 -251 243 -561 l236 -564 -388
-1309 c-214 -719 -434 -1461 -490 -1648 -119 -402 -324 -1091 -416 -1400 -36
-121 -73 -245 -81 -276 l-15 -56 347 -548 348 -547 -131 -782 c-72 -429 -209
-1249 -305 -1821 -96 -572 -290 -1728 -431 -2570 -141 -841 -271 -1620 -290
-1730 -19 -110 -104 -620 -190 -1134 l-156 -934 -74 -136 c-139 -257 -897
-1666 -952 -1771 -79 -148 -143 -264 -151 -272 -10 -10 -7 486 3 502 5 8 4 11
-3 6 -9 -5 -10 31 -2 54 6 16 4 37 -5 49 -8 11 -7 13 3 7 10 -6 12 -1 9 22 -3
17 -8 36 -13 43 -5 8 -3 10 5 4 10 -6 11 -3 2 14 -7 11 -8 21 -3 21 5 0 9 18
10 41 1 22 -2 38 -6 35 -4 -2 -9 4 -9 15 -1 11 3 17 9 13 6 -4 5 3 -2 16 -7
12 -8 20 -3 17 4 -3 9 61 10 141 1 81 2 154 2 162 1 8 0 39 -2 67 -2 29 -1 53
2 53 4 0 7 9 7 19 0 11 -4 17 -9 14 -4 -2 -7 13 -6 36 2 22 5 38 8 36 3 -2 6
83 6 188 -1 106 2 207 6 225 4 17 3 34 -1 37 -8 5 -4 174 5 228 3 20 1 26 -8
21 -9 -5 -9 -4 0 6 9 9 9 19 2 33 -8 14 -8 18 0 13 6 -4 11 -2 11 3 0 6 -6 11
-12 12 -9 0 -9 2 -2 5 7 3 9 19 7 37 -6 41 -6 47 2 75 5 14 3 22 -4 22 -7 0
-9 5 -5 12 12 18 13 129 2 122 -7 -4 -7 0 -1 12 5 11 9 65 9 121 -1 55 2 99 7
96 4 -2 7 0 7 6 0 5 -4 12 -8 15 -13 8 -14 66 -1 66 8 0 7 5 -2 16 -10 12 -10
20 -1 34 7 12 8 21 2 25 -15 9 -13 115 3 115 9 0 8 3 -2 9 -9 6 -10 14 -4 27
6 11 9 117 8 244 -2 174 1 232 12 255 l14 30 -31 -35 c-17 -19 -111 -133 -207
-253 -97 -119 -179 -217 -183 -217 -4 0 -10 53 -13 118 -6 120 -225 3621 -252
4037 -8 127 -24 379 -35 560 -11 182 -23 364 -25 405 -3 41 -41 648 -85 1349
l-80 1274 94 101 c52 55 279 299 505 541 l410 440 1 1424 c0 783 3 1422 6
1418 3 -3 5 -158 4 -345 0 -187 3 -343 7 -345 4 -3 8 149 8 336 0 188 4 348 9
355 6 8 2 12 -13 12 -11 0 -21 4 -21 9 0 5 8 8 17 7 18 -1 20 18 13 149 -2 41
-3 45 -10 25 -6 -19 -7 -12 -7 27 1 28 4 50 8 47 4 -2 5 -14 2 -27 -3 -12 -3
-19 1 -15 4 3 8 26 8 50 0 59 -2 66 -12 43 -5 -11 -8 393 -7 930 l2 950 2
-927 c2 -511 7 -928 11 -928 5 0 7 43 5 96 -2 52 0 93 5 90 10 -6 9 24 -2 42
-4 6 -2 12 3 12 6 0 11 7 11 15 0 8 -4 15 -8 15 -10 0 -8 158 2 181 4 10 3 20
-3 24 -6 3 -11 17 -11 31 0 14 3 23 8 21 4 -3 7 91 7 209 0 118 4 214 9 214 5
0 4 6 -1 13 -6 6 -9 52 -6 102 8 188 8 253 1 248 -5 -2 -8 0 -8 6 0 5 5 13 11
17 8 4 7 9 -2 15 -12 7 -12 9 0 9 11 0 11 3 0 17 -8 9 -9 14 -4 11 6 -4 10 18
10 57 0 36 -4 61 -9 58 -5 -4 -6 0 -1 7 4 7 9 101 10 209 1 108 3 198 5 201 1
3 2 8 1 12 0 4 4 19 9 33 5 14 8 25 6 25 -10 0 -56 -91 -57 -112 0 -15 -3 -18
-6 -8 -3 8 -16 26 -28 40 -12 14 -166 217 -342 451 l-321 426 -46 719 c-26
395 -49 744 -51 774 -5 60 -13 174 -50 740 -61 908 -127 1744 -140 1791 -7 21
2 30 165 170 219 188 649 564 1334 1168 340 300 625 545 631 545 7 -1 149
-111 315 -245 166 -134 418 -337 558 -450 l256 -207 75 59 c42 32 380 297 751
588 371 290 676 527 678 526 2 -2 -1 -12 -6 -22z m-26997 -5969 c618 -270
1169 -498 2825 -1169 906 -367 1748 -719 1895 -792 235 -117 477 -347 617
-586 266 -456 253 -1087 -33 -1527 -47 -73 -141 -190 -188 -234 l-31 -30 58
-60 c279 -291 415 -691 381 -1121 -21 -265 -108 -508 -260 -725 -66 -94 -232
-266 -324 -335 -121 -90 -216 -138 -725 -364 -1559 -690 -2920 -1330 -4179
-1963 -151 -76 -276 -137 -277 -135 -1 1 91 113 204 248 225 268 654 779 1075
1283 148 177 277 329 286 339 10 10 67 38 127 63 210 88 903 364 1334 532 939
367 1083 423 1305 512 298 118 330 136 419 231 127 135 181 278 174 459 -7
170 -64 302 -183 422 -77 78 -144 121 -242 155 l-78 28 -1433 5 -1432 5 -3
417 -2 418 1430 2 c1159 3 1438 6 1470 17 189 63 328 177 403 331 54 110 72
184 72 293 0 126 -33 238 -102 350 -42 67 -147 164 -217 201 -92 48 -456 191
-1636 641 -839 320 -1070 409 -1377 534 l-237 96 -592 660 c-326 363 -649 723
-718 799 -69 77 -119 137 -111 134 8 -4 146 -64 305 -134z m7085 -3331 l0
-1538 -420 -420 -420 -421 0 1958 0 1958 420 0 420 0 0 -1537z m5415 -153
l845 -1690 -476 0 -475 0 -367 740 c-201 407 -368 740 -372 740 -3 0 -344
-676 -759 -1503 -415 -826 -774 -1539 -798 -1584 l-45 -83 -1906 0 -1907 0
425 425 425 425 1227 0 1228 0 1053 2109 c578 1160 1053 2110 1054 2110 2 1
383 -759 848 -1689z m2480 1656 c145 -24 349 -76 471 -121 257 -94 575 -278
784 -453 400 -334 712 -827 835 -1317 56 -222 69 -340 70 -615 0 -249 -7 -333
-46 -523 -106 -528 -449 -1091 -873 -1436 -290 -237 -697 -436 -1036 -510
-247 -53 -270 -54 -1132 -58 l-808 -4 -205 417 c-113 229 -205 419 -205 420 0
2 453 5 1008 7 886 3 1017 5 1087 20 347 71 629 220 865 457 666 668 681 1699
32 2371 -250 261 -533 418 -879 491 -103 21 -133 22 -645 26 l-536 3 -417 425
-418 425 969 -4 c876 -3 980 -5 1079 -21z m6055 -8 c1 -18 14 -206 29 -418 16
-212 26 -388 24 -392 -2 -5 -572 -8 -1267 -8 l-1262 0 -418 425 -418 425 1656
0 1656 0 0 -32z m6883 -275 c-46 -159 -215 -729 -375 -1268 -159 -539 -351
-1185 -425 -1435 -74 -250 -135 -455 -136 -456 -30 -19 -1032 -562 -1034 -560
-2 2 89 318 202 702 114 385 229 776 256 869 28 94 132 445 231 780 99 336
242 824 319 1085 77 261 147 496 155 523 l16 47 437 0 438 0 -84 -287z m11815
-50 l-1 -338 -419 -415 -418 -415 0 753 0 752 420 0 420 0 -2 -337z m-4583
-719 c605 -544 1342 -1207 1639 -1474 296 -267 543 -486 547 -488 5 -2 9 659
9 1502 l0 1506 420 0 420 0 0 -2520 c0 -1386 -2 -2520 -5 -2520 -3 0 -184 161
-403 358 -353 318 -809 729 -1937 1742 -187 168 -612 550 -945 849 -333 299
-673 605 -757 680 l-152 136 0 639 -1 640 33 -31 c17 -17 527 -475 1132 -1019z
m-3028 624 l413 -413 0 -1685 0 -1685 -420 -420 -420 -420 0 2518 c0 1384 3
2517 7 2517 5 0 194 -186 420 -412z m-10808 -847 c15 -20 21 -45 21 -79 0 -28
5 -108 11 -177 6 -70 9 -129 6 -131 -2 -2 -27 0 -54 6 -47 10 -54 16 -96 78
-25 37 -81 117 -125 177 l-80 110 71 7 c40 4 97 14 127 21 82 22 96 20 119
-12z m-129 -851 c0 -33 47 -689 54 -762 l5 -48 -1689 0 -1690 0 0 420 0 420
1660 0 1660 0 0 -30z m13640 -1981 l0 -949 -420 0 -420 0 0 1315 0 1315 420
-366 420 -366 0 -949z m-1310 1161 l0 -120 -255 0 -255 0 0 120 0 120 255 0
255 0 0 -120z m-17725 78 c-4 -13 -28 -67 -53 -120 l-45 -98 -978 0 -979 0
-60 119 -60 120 1091 1 1091 1 -7 -23z m23528 -1099 l417 -411 0 -334 0 -334
-420 0 -420 0 0 745 c0 410 1 745 3 745 2 0 191 -185 420 -411z m-22016 -26
c142 -195 203 -282 203 -292 0 -6 3 -11 8 -11 4 0 18 -17 32 -38 14 -20 27
-39 30 -42 3 -3 30 -40 60 -83 30 -44 65 -91 77 -107 l23 -27 -22 -19 c-12
-11 -46 -53 -77 -95 l-57 -77 -44 69 c-25 37 -48 68 -52 69 -5 0 -8 4 -8 10 0
5 -7 18 -15 27 -23 29 -128 173 -176 243 -24 36 -46 67 -49 70 -3 3 -29 38
-59 79 l-53 74 18 31 c11 17 39 66 64 108 25 43 46 78 46 78 1 0 23 -30 51
-67z m4028 -310 c4 -60 17 -251 29 -425 l21 -318 -1687 0 -1688 0 0 34 c0 32
24 57 423 425 l422 391 1237 0 1236 0 7 -107z m8445 -327 l0 -425 -1678 2
-1679 2 416 423 415 422 1263 0 1263 0 0 -424z m-3339 322 c7 -13 16 -25 20
-28 5 -3 -31 -45 -79 -93 l-88 -88 -37 54 c-20 29 -37 58 -37 63 0 10 177 111
197 113 7 1 18 -9 24 -21z m67 -1208 l103 1 -56 -78 c-30 -43 -79 -111 -108
-152 -88 -125 -100 -144 -152 -216 -27 -38 -54 -75 -60 -81 -5 -6 -35 -47 -65
-92 -30 -45 -56 -80 -58 -77 -2 2 15 117 39 257 38 229 45 257 72 298 17 25
33 47 36 50 6 5 19 25 49 73 15 26 21 28 57 22 22 -4 86 -6 143 -5z m-5062
-86 c33 -47 64 -91 69 -97 6 -7 38 -50 71 -97 l61 -85 12 -180 c6 -99 14 -214
17 -255 l6 -75 -23 29 c-13 17 -54 73 -91 125 -37 53 -70 101 -75 106 -5 6
-31 41 -58 80 -55 77 -57 79 -134 191 -30 44 -57 81 -60 84 -11 9 -181 249
-181 254 0 4 74 6 164 6 l163 0 59 -86z"/>
<path d="M25790 26718 c-25 -24 -214 -191 -420 -373 -404 -354 -657 -577 -951
-836 -102 -90 -297 -261 -433 -379 l-247 -215 5 -40 c28 -198 116 -1404 221
-3025 63 -972 62 -967 73 -986 15 -27 646 -863 652 -863 3 -1 154 261 337 582
l331 582 31 475 c18 261 40 608 51 770 11 162 31 466 45 675 54 830 87 1329
99 1513 9 140 17 197 27 206 8 8 313 248 679 536 366 287 666 525 667 528 2
10 -1086 884 -1106 888 -9 2 -36 -14 -61 -38z"/>
<path d="M24345 13765 c-187 -156 -344 -290 -349 -298 -7 -10 17 -45 84 -126
51 -61 98 -111 103 -111 8 0 629 513 690 569 16 16 12 23 -78 131 -53 63 -99
116 -103 117 -4 2 -160 -125 -347 -282z"/>
<path d="M24213 11700 c-51 -60 -93 -115 -93 -122 1 -15 679 -583 697 -583 18
0 195 214 190 229 -5 13 -686 586 -696 586 -3 0 -48 -49 -98 -110z"/>
<path d="M24503 9232 c-188 -158 -345 -290 -349 -294 -7 -8 181 -238 194 -238
14 0 703 582 700 591 -5 15 -189 229 -196 228 -4 0 -161 -129 -349 -287z"/>
<path d="M45865 20409 c-330 -298 -872 -788 -1205 -1088 -332 -300 -725 -654
-871 -787 -147 -132 -377 -339 -510 -460 -134 -121 -530 -478 -879 -794 -349
-315 -636 -576 -638 -580 -1 -4 127 -133 285 -286 372 -361 2032 -1968 2828
-2739 341 -330 837 -810 1102 -1067 265 -258 484 -468 487 -468 3 0 6 143 5
318 l0 317 -430 415 c-236 228 -454 440 -484 471 l-55 55 39 57 c25 35 38 64
35 74 -4 14 -3 15 4 5 7 -10 30 15 91 102 80 114 92 134 69 120 -7 -4 -8 -3
-4 5 4 6 11 9 16 6 4 -3 26 19 47 48 70 92 69 86 13 163 -28 38 -54 69 -59 69
-5 0 -13 4 -18 9 -5 5 -3 6 5 2 18 -10 15 2 -9 35 -11 16 -24 27 -29 24 -4 -3
-14 3 -21 13 -13 15 -12 16 4 3 9 -7 17 -10 17 -7 0 13 -43 65 -50 61 -4 -3
-16 5 -26 18 l-19 22 23 -19 c12 -11 22 -16 22 -12 0 16 -122 176 -130 171 -5
-3 -12 0 -16 6 -4 8 -3 9 4 5 18 -11 14 3 -9 35 -11 16 -25 27 -30 24 -5 -4
-7 0 -4 7 5 16 -76 133 -92 133 -7 0 -18 7 -25 15 -11 12 -11 12 5 1 9 -7 17
-10 17 -5 -1 15 -129 189 -139 189 -6 0 -16 6 -23 14 -10 10 -10 12 0 7 6 -4
12 -4 12 0 0 15 -262 374 -270 369 -5 -3 -12 0 -16 6 -4 8 -3 9 4 5 20 -12 14
2 -29 64 -22 33 -44 58 -49 55 -4 -3 -14 3 -21 12 -10 12 -10 14 -1 9 18 -11
15 2 -9 35 -11 16 -25 26 -31 23 -7 -4 -8 -2 -4 4 8 14 -82 145 -94 137 -5 -3
-12 0 -16 6 -4 8 -3 9 4 5 7 -4 12 -4 12 0 0 14 -142 204 -150 199 -4 -3 -14
3 -21 13 -13 15 -12 16 4 3 25 -20 21 -5 -14 45 -16 24 -34 42 -39 39 -5 -3
-12 0 -16 6 -4 8 -3 9 4 5 7 -4 12 -2 12 3 0 8 -233 11 -765 11 -454 0 -765 4
-765 9 0 5 -56 61 -125 125 l-124 116 883 0 884 0 36 49 c37 50 45 68 24 55
-7 -4 -8 -3 -4 5 4 6 11 9 16 6 5 -3 18 8 29 24 23 32 27 46 9 35 -7 -4 -8 -3
-4 5 4 6 11 9 16 6 12 -8 53 53 44 66 -4 7 -3 9 4 5 6 -3 20 7 31 23 23 32 27
46 9 35 -7 -4 -8 -3 -4 5 4 6 11 9 16 6 5 -3 18 8 29 24 23 32 27 46 9 35 -7
-4 -8 -3 -4 5 4 6 11 9 16 6 12 -8 152 193 144 207 -4 6 -3 8 4 4 6 -4 24 13
41 38 35 50 39 65 14 45 -16 -13 -17 -12 -4 3 7 10 17 16 21 13 5 -3 31 26 59
64 51 68 61 89 39 75 -7 -4 -8 -3 -4 5 4 6 11 9 16 6 11 -7 42 43 34 57 -4 6
-3 8 4 4 6 -3 20 7 31 23 23 32 27 46 9 35 -7 -4 -8 -3 -4 5 4 6 11 9 16 6 13
-8 59 65 53 84 -3 11 -2 12 4 4 6 -8 20 3 47 39 43 59 57 86 36 73 -9 -5 -11
-4 -6 4 4 6 11 9 16 6 12 -8 53 53 44 66 -4 7 -3 9 3 6 14 -9 37 19 27 34 -4
7 -3 9 3 6 14 -9 127 149 117 164 -4 7 -3 9 3 6 6 -4 38 30 72 78 64 89 73
107 44 84 -16 -13 -17 -12 -4 3 7 10 17 16 21 13 11 -7 52 54 44 67 -4 6 -3 8
3 5 13 -8 177 219 168 233 -4 6 -11 7 -17 4 -7 -4 -8 -2 -4 4 9 15 -233 354
-247 345 -6 -3 -7 -1 -3 6 9 13 -32 74 -44 66 -5 -3 -12 0 -16 6 -4 8 -3 9 4
5 18 -11 14 3 -9 35 -11 16 -25 26 -31 23 -7 -4 -8 -2 -4 5 10 15 -62 113 -76
104 -7 -3 -8 -1 -4 6 10 15 -82 144 -96 135 -7 -5 -8 -2 -3 5 4 8 -6 31 -26
58 l-32 46 25 21 c14 12 290 259 612 551 l586 530 0 307 c0 170 -1 308 -2 308
-2 0 -273 -244 -603 -541z"/>
</g>
</svg>
